<?xml version="1.0" standalone="no"?>
<!DOCTYPE svg PUBLIC "-//W3C//DTD SVG 20010904//EN"
 "http://www.w3.org/TR/2001/REC-SVG-20010904/DTD/svg10.dtd">
<svg version="1.0" xmlns="http://www.w3.org/2000/svg"
 width="260.000000pt" height="260.000000pt" viewBox="0 0 260.000000 260.000000"
 preserveAspectRatio="xMidYMid meet">
<metadata>
Created by potrace 1.14, written by Peter Selinger 2001-2017
</metadata>
<g transform="translate(0.000000,260.000000) scale(0.100000,-0.100000)"
fill="#000000" stroke="none">
<path d="M0 1300 l0 -1300 1300 0 1300 0 0 1300 0 1300 -1300 0 -1300 0 0
-1300z m327 908 c11 -13 42 -59 68 -103 27 -44 61 -99 77 -122 l29 -43 108
123 c108 122 158 167 184 167 36 0 50 -57 20 -81 -9 -8 -67 -73 -130 -146 -62
-72 -118 -135 -123 -138 -11 -7 86 -201 136 -275 28 -41 30 -67 7 -92 -39 -43
-71 -13 -148 142 -81 161 -55 161 -221 2 -79 -75 -155 -141 -169 -147 -31 -11
-59 3 -63 32 -3 18 23 45 265 279 l61 59 -76 121 c-43 66 -87 133 -99 149 -28
34 -29 49 -3 75 26 26 52 25 77 -2z m1191 -216 l3 -43 37 29 c91 71 154 81
204 32 l30 -31 -5 -92 c-10 -159 -26 -338 -32 -358 -7 -20 -46 -35 -70 -25
-21 8 -20 166 1 276 8 45 14 98 12 118 -3 33 -6 37 -34 40 -86 8 -214 -207
-214 -360 0 -19 -7 -44 -16 -56 -17 -24 -56 -29 -72 -9 -13 16 -2 115 31 277
14 69 29 146 32 172 7 56 28 80 64 76 23 -3 26 -8 29 -46z m-337 18 c40 -11
76 -45 79 -75 9 -85 -23 -115 -210 -200 -82 -37 -150 -71 -150 -75 0 -3 12
-18 28 -33 60 -57 196 -52 263 10 34 31 73 28 77 -6 8 -54 -102 -120 -215
-129 -168 -13 -261 79 -234 232 36 205 191 323 362 276z m1018 -8 c51 -25 76
-81 75 -167 0 -127 -57 -243 -146 -302 -35 -24 -52 -28 -109 -28 -78 0 -110
18 -146 81 -25 43 -31 140 -13 204 15 53 71 140 111 172 70 57 164 73 228 40z
m-630 -1006 c8 -10 5 -50 -14 -162 -64 -377 -98 -551 -112 -572 -10 -17 -22
-22 -41 -20 -26 3 -27 5 -26 58 1 71 111 679 125 697 15 17 53 17 68 -1z
m-1313 -20 c3 -8 -4 -69 -15 -136 -12 -68 -21 -128 -21 -136 0 -9 14 -6 53 11
141 66 270 -14 271 -169 1 -117 -55 -216 -152 -273 -40 -24 -57 -28 -117 -26
-186 4 -210 10 -201 47 3 11 21 132 41 268 46 322 58 384 80 408 21 23 53 26
61 6z m1871 -3 c8 -20 -4 -89 -51 -291 -19 -83 -40 -205 -46 -270 -7 -64 -17
-123 -22 -129 -12 -15 -54 -17 -63 -4 -3 6 -20 1 -40 -10 -79 -47 -206 -31
-259 32 -95 112 -22 345 129 415 64 30 137 32 184 3 18 -11 35 -19 36 -17 2 2
13 52 25 113 25 121 36 156 53 167 21 13 47 9 54 -9z m-809 -35 c30 -30 -1
-88 -48 -88 -50 0 -66 44 -30 80 22 22 60 26 78 8z m1240 -229 c3 -74 -10 -99
-54 -99 -19 0 -26 6 -30 30 -4 17 -10 30 -14 30 -4 0 -37 -9 -72 -20 -60 -18
-108 -49 -108 -70 0 -5 24 -14 53 -20 110 -23 171 -78 169 -155 -1 -94 -71
-154 -191 -163 -117 -8 -211 35 -197 91 10 42 40 52 81 27 47 -29 129 -37 178
-17 31 13 37 21 37 45 0 40 -25 59 -111 83 -92 25 -109 40 -109 93 0 47 27 97
67 123 40 27 233 91 268 89 30 -1 30 -1 33 -67z m-1799 22 c15 -10 15 -12 -18
-161 -11 -52 -21 -123 -21 -157 0 -76 15 -89 94 -79 97 13 93 9 105 99 16 115
40 237 53 270 13 34 53 46 75 24 14 -14 13 -28 -10 -144 -14 -70 -32 -171 -38
-223 -7 -54 -19 -103 -27 -112 -19 -23 -58 -23 -70 -1 -8 14 -15 15 -55 5 -97
-25 -183 -6 -206 44 -32 71 17 419 62 437 19 8 41 7 56 -2z m509 -23 c2 -15
-6 -74 -17 -130 -12 -57 -26 -139 -32 -183 -13 -97 -29 -127 -67 -123 -27 3
-27 3 -25 78 2 89 49 335 70 368 21 34 67 27 71 -10z"/>
<path d="M1044 1929 c-18 -5 -48 -27 -69 -50 -36 -40 -71 -106 -62 -116 8 -7
260 121 264 134 9 26 -81 47 -133 32z"/>
<path d="M2067 1916 c-50 -18 -59 -27 -91 -86 -55 -101 -43 -210 27 -228 98
-26 180 71 181 214 1 51 -3 67 -19 83 -29 27 -55 32 -98 17z"/>
<path d="M275 631 c-70 -33 -75 -40 -90 -136 -21 -130 -21 -134 20 -151 44
-18 118 -18 153 0 62 32 102 104 102 181 0 109 -80 155 -185 106z"/>
<path d="M1823 650 c-18 -4 -44 -15 -59 -24 -38 -25 -74 -110 -74 -174 0 -48
4 -58 34 -88 28 -28 42 -34 76 -34 46 0 99 21 124 49 10 11 23 59 32 114 14
88 14 98 -1 121 -14 21 -74 49 -95 45 -3 -1 -20 -4 -37 -9z"/>
</g>
</svg>
